<svg xmlns="http://www.w3.org/2000/svg" version="1.1" xmlns:xlink="http://www.w3.org/1999/xlink" width="512" height="512" x="0" y="0" viewBox="0 0 850.394 850.394" style="enable-background:new 0 0 512 512" xml:space="preserve" class=""><g><path fill="#9eacba" d="M668.07 634.11c-10.18 8.53-21.24 15.74-32.84 21.16l-12.37 5.03-65.59 26.63c-43.42 4.08-86.95 6.19-130.47 6.21-10.08.01-20.16-.1-30.23-.32v-49.24l271.5-9.47z" opacity="1" data-original="#9eacba"></path><path fill="#36bcff" d="M73.889 405.491c-3.174 35.808-3.174 71.179 0 106.985 1.594 10.415 8.416 19.95 16.703 26.202 12.51 8.174 24.748 15.974 39.916 17.92 14.388-.768 26.445-18.648 28.464-31.908 4.89-43.996 4.89-87.415 0-131.413-2.019-13.26-14.076-31.14-28.464-31.907-15.168 1.945-27.406 9.746-39.916 17.919-8.287 6.252-15.109 15.787-16.703 26.202z" opacity="1" data-original="#36bcff" class=""></path><path fill="#307de3" d="M776.505 405.491c3.174 35.808 3.174 71.179 0 106.985-1.594 10.415-8.416 19.95-16.703 26.202-12.51 8.174-24.748 15.974-39.916 17.92-14.388-.768-26.446-18.648-28.465-31.908-4.89-43.996-4.89-87.415 0-131.413 2.02-13.26 14.077-31.14 28.465-31.907 15.168 1.945 27.406 9.746 39.916 17.919 8.287 6.252 15.109 15.787 16.703 26.202zM492.62 241.47h-65.15v-26.81h.81c5.87 0 11.55.33 16.95.94 27.31 3.1 47.39 13.51 47.39 25.87z" opacity="1" data-original="#307de3" class=""></path><path fill="#171a3b" d="M445.23 241.47v45.94h-33.9V157.2h16.14v84.27z" opacity="1" data-original="#171a3b"></path><path fill="#36bcff" d="M492.62 241.47c0 12.36-20.08 22.77-47.39 25.87-5.4.61-11.08.94-16.95.94s-11.55-.33-16.95-.94c-27.31-3.1-47.39-13.51-47.39-25.87 0-12.37 20.08-22.77 47.39-25.87 5.15-.58 10.56-.91 16.14-.94v26.81h65.15z" opacity="1" data-original="#36bcff" class=""></path><path fill="#e7e9eb" d="M427.47 241.47V676.5h-.67c-10.08.01-20.16-.1-30.23-.32-46.84-1.02-93.66-4.48-140.3-10.55-61.88-8.04-118.77-70.96-127.82-134.18-6.95-48.53-6.95-96.4 0-144.93 9.05-63.22 65.94-126.14 127.82-134.18 56.68-7.37 113.6-10.9 170.53-10.87z" opacity="1" data-original="#e7e9eb"></path><path fill="#d1d3d4" d="M727.94 531.45c-5.64 37.92-28.67 76.51-59.87 102.66-10.18 8.53-21.24 15.74-32.84 21.16-4.06 1.9-8.19 3.58-12.37 5.03-7.43 2.56-15.04 4.38-22.74 5.33-57.4 7.09-115.02 10.81-172.65 10.87V241.47c57.62.06 115.26 3.78 172.65 10.87 62.28 7.69 118.55 71.86 127.82 134.18 7.17 48.22 7.17 96.72 0 144.93z" opacity="1" data-original="#d1d3d4" class=""></path><path fill="#061942" d="M455.71 312.69 212.54 555.87c-7.37-11.24-12.35-23.37-13.94-34.47-2.96-20.73-4.47-41.18-4.51-61.63L338.5 315.36c28.99-2.01 58.24-3.02 87.5-3.02 9.86 0 19.77.11 29.71.35zM657.85 521.02c-3.02 20.26-16.87 43.33-35.3 58.77-5.68 4.77-11.51 8.56-17.32 11.27-1.84.87-3.69 1.62-5.51 2.25-2.89 1-5.67 1.66-8.27 1.98-55.52 6.86-111.17 10.34-165.42 10.34-9.28 0-18.67-.1-27.91-.3-44.68-.98-89.33-4.33-132.7-9.98-6.9-.9-14.5-3.93-22.05-8.66L514.7 315.36c25.5 1.71 51.13 4.15 76.74 7.31 27.93 3.45 61.45 40.93 66.41 74.27 6.12 41.17 6.12 82.92 0 124.08z" opacity="1" data-original="#061942"></path><path fill="#152e63" d="M338.5 315.36 194.09 459.77c-.04-20.97 1.47-41.94 4.51-63.21 2.33-16.25 11.92-34.71 25.66-49.37 12.85-13.71 28.23-22.9 41.14-24.58 24.08-3.13 48.51-5.55 73.1-7.25zM514.7 315.36 243.37 586.69c-6.58-4.12-13.12-9.53-19.11-15.92-4.36-4.65-8.3-9.68-11.72-14.9l243.17-243.18c19.54.44 39.23 1.33 58.99 2.67z" opacity="1" data-original="#152e63"></path><path fill="#36bcff" d="M427.47 98.22v78.13c-5.76 0-11.22-1.24-16.14-3.48-13.53-6.14-22.93-19.77-22.93-35.59 0-21.57 17.49-39.06 39.07-39.06z" opacity="1" data-original="#36bcff" class=""></path><path fill="#d1d3d4" d="m557.27 686.93-160.7 65.25v-59.36c10.07.22 20.15.33 30.23.32 43.52-.02 87.05-2.13 130.47-6.21z" opacity="1" data-original="#d1d3d4" class=""></path><path fill="#307de3" d="M466.53 137.28c0 15.18-8.66 28.34-21.3 34.81a38.914 38.914 0 0 1-17.76 4.26V98.22c21.57 0 39.06 17.49 39.06 39.06z" opacity="1" data-original="#307de3" class=""></path><path fill="#01052b" d="M445.23 172.09v43.51c-5.4-.61-11.08-.94-16.95-.94h-.81v-38.31c6.4 0 12.44-1.54 17.76-4.26z" opacity="1" data-original="#01052b"></path><g fill="#36bcff"><path d="M329.21 514.433c-13.42 2.825-20.33 2.825-33.75 0-9.039-3.805-15.91-13.04-17.953-22.513-3.472-27.876-3.472-54.848 0-82.724 2.043-9.474 8.914-18.708 17.953-22.513 13.42-2.825 20.33-2.825 33.75 0 9.039 3.805 15.91 13.04 17.953 22.513 3.472 27.876 3.472 54.848 0 82.724-2.043 9.474-8.914 18.708-17.953 22.513zM561.098 514.433c-13.42 2.825-20.33 2.825-33.75 0-9.039-3.805-15.91-13.04-17.953-22.513-3.472-27.876-3.472-54.848 0-82.724 2.043-9.474 8.914-18.708 17.953-22.513 13.42-2.825 20.33-2.825 33.75 0 9.038 3.805 15.91 13.04 17.953 22.513 3.472 27.876 3.472 54.848 0 82.724-2.044 9.474-8.915 18.708-17.953 22.513zM387.552 492.937h81.453c6.283 0 11.383 5.1 11.383 11.382v.17c0 28.759-23.35 52.108-52.109 52.108-28.76 0-52.11-23.349-52.11-52.109v-.169c0-6.282 5.101-11.382 11.383-11.382z" fill="#36bcff" opacity="1" data-original="#36bcff" class=""></path></g></g></svg>